# xmcd CD database file
#
# Track frame offsets:
#	182
#	17380
#	39420
#	57790
#	81185
#	101907
#	112892
#	127697
#	150007
#	172832
#	195022
#	226947
#	262140
#
# Disc length: 3815 seconds
#
# Revision: 5
# Processed by: cddbd v1.5.2PL0 Copyright (c) Steve Scherf et al.
# Submitted via: CDex 1.51
#
DISCID=850ee50d
DTITLE=Young MC - Brainstorm
DYEAR=1991
DGENRE=Hip-Hop
TTITLE0=That's the way love goes
TTITLE1=Keep your eyes on the prize
TTITLE2=Do you feel like I do
TTITLE3=After school
TTITLE4=The right one
TTITLE5=The um dee dum Song
TTITLE6=Album filler
TTITLE7=Keep it in your Pants
TTITLE8=Use your head
TTITLE9=Listen to the beat of the music
TTITLE10=Inside my head
TTITLE11=Life in the fast lane
TTITLE12=That's the way love goes
EXTD=YEAR: 1991
EXTT0=
EXTT1=
EXTT2=
EXTT3=
EXTT4=
EXTT5=
EXTT6=
EXTT7=
EXTT8=
EXTT9=
EXTT10=
EXTT11=
EXTT12=
PLAYORDER=
